<?xml version="1.0" standalone="no"?>
<!DOCTYPE svg PUBLIC "-//W3C//DTD SVG 20010904//EN"
 "http://www.w3.org/TR/2001/REC-SVG-20010904/DTD/svg10.dtd">
<svg version="1.0" xmlns="http://www.w3.org/2000/svg"
 width="500.000000pt" height="500.000000pt" viewBox="0 0 500.000000 500.000000"
 preserveAspectRatio="xMidYMid meet">
<metadata>
Created by potrace 1.11, written by Peter Selinger 2001-2013
</metadata>
<g transform="translate(0.000000,500.000000) scale(0.100000,-0.100000)"
fill="#000000" stroke="none">
<path d="M2245 4989 c-600 -72 -1097 -310 -1511 -723 -211 -212 -353 -411
-484 -678 -103 -212 -201 -526 -224 -723 -4 -27 -10 -77 -14 -110 -14 -122 -6
-551 13 -607 2 -7 6 -31 9 -53 38 -295 192 -690 377 -968 188 -282 449 -544
714 -715 155 -101 415 -232 510 -258 6 -1 42 -14 81 -28 39 -14 82 -27 95 -30
13 -3 40 -10 59 -15 41 -13 163 -39 217 -46 21 -3 47 -7 58 -10 74 -15 168
-20 370 -19 319 1 518 34 810 134 129 44 389 167 475 225 28 19 54 35 57 35 7
0 198 140 248 182 95 79 263 251 336 343 73 92 199 270 199 280 0 3 17 33 38
67 126 210 262 604 296 863 29 217 29 537 0 725 -68 446 -232 826 -512 1190
-90 117 -317 340 -437 430 -55 41 -101 78 -103 83 -2 4 -8 7 -13 7 -6 0 -36
17 -67 38 -248 168 -655 322 -955 362 -45 6 -93 13 -107 16 -43 10 -462 11
-535 3z m385 -854 c487 -48 910 -374 1084 -839 14 -38 28 -78 31 -90 62 -261
64 -405 11 -671 -10 -53 -61 -188 -98 -260 -68 -133 -143 -237 -255 -350 l-49
-50 12 -85 c7 -47 14 -103 17 -125 6 -38 54 -372 62 -425 2 -14 7 -45 11 -70
30 -177 -73 -319 -241 -334 -38 -3 -129 17 -150 34 -5 4 -55 32 -110 62 -55
30 -180 98 -278 152 l-177 97 -123 -67 c-67 -37 -140 -77 -162 -89 -22 -12
-92 -51 -155 -86 -63 -34 -131 -71 -151 -80 -105 -52 -254 -9 -324 92 -27 37
-55 128 -50 159 3 15 31 208 40 265 2 17 16 111 30 210 14 99 29 203 31 230 3
28 7 52 7 55 1 3 -28 37 -65 75 -111 117 -175 206 -238 334 -38 74 -88 210
-97 261 -2 14 -8 41 -13 60 -31 119 -29 360 5 520 117 553 606 980 1165 1017
47 3 86 6 87 8 3 2 57 -2 143 -10z"/>
<path d="M2304 3975 c-301 -54 -579 -233 -748 -484 -227 -335 -261 -749 -91
-1126 99 -221 337 -458 552 -551 32 -13 67 -29 78 -34 124 -55 384 -87 545
-66 165 21 342 87 485 180 103 67 251 210 315 305 88 132 166 321 185 451 4
25 9 59 12 75 2 17 5 64 5 105 3 572 -388 1042 -952 1145 -93 16 -291 16 -386
0z m249 -414 c8 -9 49 -119 90 -246 l75 -230 257 -5 c255 -5 257 -5 276 -29
21 -26 24 -53 9 -81 -9 -18 -355 -275 -385 -286 -21 -8 -19 -29 11 -115 14
-41 27 -81 29 -90 2 -8 22 -71 45 -140 22 -68 42 -137 42 -152 1 -33 -27 -66
-64 -72 -28 -5 -33 -2 -222 135 -65 47 -140 101 -169 121 l-51 36 -65 -49
c-36 -27 -77 -58 -91 -68 -75 -56 -222 -161 -239 -169 -43 -23 -105 16 -103
66 0 15 34 129 75 252 l73 224 -80 59 c-45 32 -90 66 -101 74 -235 170 -235
171 -235 214 0 10 9 28 19 41 19 24 21 24 276 29 l257 5 75 230 c42 127 80
236 86 244 26 31 84 33 110 2z"/>
<path d="M2451 3113 c-24 -76 -53 -148 -64 -160 -19 -21 -29 -23 -181 -25
l-160 -3 126 -92 c69 -51 128 -100 132 -109 11 -28 7 -49 -39 -186 -25 -75
-45 -138 -45 -142 0 -3 57 35 126 85 135 99 158 106 211 72 15 -9 30 -20 33
-23 15 -17 190 -139 190 -133 0 5 -18 62 -40 127 -48 145 -55 178 -41 203 5
11 65 60 133 109 l123 89 -160 3 c-142 2 -161 5 -180 22 -13 12 -39 75 -66
160 -24 77 -46 140 -49 140 -3 0 -25 -62 -49 -137z"/>
<path d="M1774 1702 c-4 -37 -9 -71 -9 -77 -1 -5 -5 -32 -9 -60 -4 -27 -10
-66 -12 -85 -3 -19 -10 -63 -15 -98 -5 -34 -12 -82 -15 -106 -2 -24 -7 -55 -9
-67 -3 -13 -8 -51 -11 -85 -6 -59 -5 -61 29 -97 57 -61 83 -55 294 61 98 54
207 114 243 134 36 19 99 54 141 77 42 22 87 41 100 41 13 0 148 -68 299 -151
362 -199 362 -199 405 -199 29 0 45 8 71 34 19 19 34 44 34 58 0 12 -21 172
-47 354 l-47 332 -60 -35 c-410 -232 -900 -236 -1289 -12 -39 23 -75 43 -78
45 -4 2 -10 -27 -15 -64z"/>
</g>
</svg>
